<?xml version="1.0" encoding="UTF-8" standalone="no"?>
<!DOCTYPE svg PUBLIC "-//W3C//DTD SVG 1.1//EN"
 "http://www.w3.org/Graphics/SVG/1.1/DTD/svg11.dtd">
<!-- Generated by graphviz version 2.38.0 (20140413.2041)
 -->
<!-- Title: G Pages: 1 -->
<svg width="900pt" height="91pt"
 viewBox="0.00 0.00 900.00 91.35" xmlns="http://www.w3.org/2000/svg" xmlns:xlink="http://www.w3.org/1999/xlink">
<g id="graph0" class="graph" transform="scale(0.61724 0.61724) rotate(0) translate(4 144)">
<title>G</title>
<polygon fill="white" stroke="none" points="-4,4 -4,-144 1454.1,-144 1454.1,4 -4,4"/>
<!-- Semester 1 -->
<g id="node1" class="node"><title>Semester 1</title>
<ellipse fill="none" stroke="black" cx="60.1041" cy="-121" rx="60.2083" ry="18.2703"/>
<text text-anchor="middle" x="60.1041" y="-117.2" font-family="Times New Roman,serif" font-size="16.00">Semester 1</text>
</g>
<!-- Semester 2 -->
<g id="node2" class="node"><title>Semester 2</title>
<ellipse fill="none" stroke="black" cx="60.1041" cy="-70" rx="60.2083" ry="18.2703"/>
<text text-anchor="middle" x="60.1041" y="-66.2" font-family="Times New Roman,serif" font-size="16.00">Semester 2</text>
</g>
<!-- Semester 1&#45;&gt;Semester 2 -->
<g id="edge1" class="edge"><title>Semester 1&#45;&gt;Semester 2</title>
<path fill="none" stroke="black" d="M60.1041,-102.586C60.1041,-101.318 60.1041,-100.021 60.1041,-98.7121"/>
<polygon fill="black" stroke="black" points="63.6042,-98.6879 60.1041,-88.688 56.6042,-98.688 63.6042,-98.6879"/>
</g>
<!-- Semester 3 -->
<g id="node3" class="node"><title>Semester 3</title>
<ellipse fill="none" stroke="black" cx="60.1041" cy="-19" rx="60.2083" ry="18.2703"/>
<text text-anchor="middle" x="60.1041" y="-15.2" font-family="Times New Roman,serif" font-size="16.00">Semester 3</text>
</g>
<!-- Semester 2&#45;&gt;Semester 3 -->
<g id="edge2" class="edge"><title>Semester 2&#45;&gt;Semester 3</title>
<path fill="none" stroke="black" d="M60.1041,-51.5865C60.1041,-50.3177 60.1041,-49.0211 60.1041,-47.7121"/>
<polygon fill="black" stroke="black" points="63.6042,-47.6879 60.1041,-37.688 56.6042,-47.688 63.6042,-47.6879"/>
</g>
<!-- AIF181101 -->
<g id="node4" class="node"><title>AIF181101</title>
<polygon fill="none" stroke="black" points="289.604,-140 138.604,-140 138.604,-102 289.604,-102 289.604,-140"/>
<text text-anchor="middle" x="214.104" y="-124.8" font-family="Times New Roman,serif" font-size="14.00">AIF181101 </text>
<text text-anchor="middle" x="214.104" y="-109.8" font-family="Times New Roman,serif" font-size="14.00">Computational Thinking</text>
</g>
<!-- AIF181100 -->
<g id="node11" class="node"><title>AIF181100</title>
<polygon fill="none" stroke="black" points="276.604,-89 151.604,-89 151.604,-51 276.604,-51 276.604,-89"/>
<text text-anchor="middle" x="214.104" y="-73.8" font-family="Times New Roman,serif" font-size="14.00">AIF181100 </text>
<text text-anchor="middle" x="214.104" y="-58.8" font-family="Times New Roman,serif" font-size="14.00">Dasar Pemograman</text>
</g>
<!-- AIF181101&#45;&gt;AIF181100 -->
<g id="edge3" class="edge"><title>AIF181101&#45;&gt;AIF181100</title>
<path fill="none" stroke="black" d="M214.104,-101.754C214.104,-100.979 214.104,-100.194 214.104,-99.4043"/>
<polygon fill="black" stroke="black" points="217.604,-99.0978 214.104,-89.0979 210.604,-99.0979 217.604,-99.0978"/>
</g>
<!-- AIF181103 -->
<g id="node5" class="node"><title>AIF181103</title>
<polygon fill="none" stroke="black" points="424.104,-140 308.104,-140 308.104,-102 424.104,-102 424.104,-140"/>
<text text-anchor="middle" x="366.104" y="-124.8" font-family="Times New Roman,serif" font-size="14.00">AIF181103 </text>
<text text-anchor="middle" x="366.104" y="-109.8" font-family="Times New Roman,serif" font-size="14.00">Matematika Dasar</text>
</g>
<!-- AIF181105 -->
<g id="node6" class="node"><title>AIF181105</title>
<polygon fill="none" stroke="black" points="581.604,-140 442.604,-140 442.604,-102 581.604,-102 581.604,-140"/>
<text text-anchor="middle" x="512.104" y="-124.8" font-family="Times New Roman,serif" font-size="14.00">AIF181105 </text>
<text text-anchor="middle" x="512.104" y="-109.8" font-family="Times New Roman,serif" font-size="14.00">Pengantar Informatika</text>
</g>
<!-- AIF181107 -->
<g id="node7" class="node"><title>AIF181107</title>
<polygon fill="none" stroke="black" points="724.104,-140 600.104,-140 600.104,-102 724.104,-102 724.104,-140"/>
<text text-anchor="middle" x="662.104" y="-124.8" font-family="Times New Roman,serif" font-size="14.00">AIF181107 </text>
<text text-anchor="middle" x="662.104" y="-109.8" font-family="Times New Roman,serif" font-size="14.00">Matematika Diskret</text>
</g>
<!-- AIF182103 -->
<g id="node18" class="node"><title>AIF182103</title>
<polygon fill="none" stroke="black" points="714.604,-38 609.604,-38 609.604,-0 714.604,-0 714.604,-38"/>
<text text-anchor="middle" x="662.104" y="-22.8" font-family="Times New Roman,serif" font-size="14.00">AIF182103 </text>
<text text-anchor="middle" x="662.104" y="-7.8" font-family="Times New Roman,serif" font-size="14.00">Struktur Diskret</text>
</g>
<!-- AIF181107&#45;&gt;AIF182103 -->
<g id="edge5" class="edge"><title>AIF181107&#45;&gt;AIF182103</title>
<path fill="none" stroke="black" stroke-dasharray="1,5" d="M662.104,-101.658C662.104,-86.7164 662.104,-65.3665 662.104,-48.2446"/>
<polygon fill="black" stroke="black" points="665.604,-48.2252 662.104,-38.2253 658.604,-48.2253 665.604,-48.2252"/>
</g>
<!-- MKU170130 -->
<g id="node8" class="node"><title>MKU170130</title>
<polygon fill="none" stroke="black" points="856.104,-140 742.104,-140 742.104,-102 856.104,-102 856.104,-140"/>
<text text-anchor="middle" x="799.104" y="-124.8" font-family="Times New Roman,serif" font-size="14.00">AIF181103 </text>
<text text-anchor="middle" x="799.104" y="-109.8" font-family="Times New Roman,serif" font-size="14.00">Bahasa Indonesia</text>
</g>
<!-- MKU170110 -->
<g id="node9" class="node"><title>MKU170110</title>
<polygon fill="none" stroke="black" points="1053.6,-140 874.604,-140 874.604,-102 1053.6,-102 1053.6,-140"/>
<text text-anchor="middle" x="964.104" y="-124.8" font-family="Times New Roman,serif" font-size="14.00">AIF181103 </text>
<text text-anchor="middle" x="964.104" y="-109.8" font-family="Times New Roman,serif" font-size="14.00">Pendidikan Kewarganegaraan</text>
</g>
<!-- MKU170120 -->
<g id="node10" class="node"><title>MKU170120</title>
<polygon fill="none" stroke="black" points="1154.6,-140 1071.6,-140 1071.6,-102 1154.6,-102 1154.6,-140"/>
<text text-anchor="middle" x="1113.1" y="-124.8" font-family="Times New Roman,serif" font-size="14.00">AIF181100 </text>
<text text-anchor="middle" x="1113.1" y="-109.8" font-family="Times New Roman,serif" font-size="14.00">Logika</text>
</g>
<!-- AIF182101 -->
<g id="node17" class="node"><title>AIF182101</title>
<polygon fill="none" stroke="black" points="288.604,-38 139.604,-38 139.604,-0 288.604,-0 288.604,-38"/>
<text text-anchor="middle" x="214.104" y="-22.8" font-family="Times New Roman,serif" font-size="14.00">AIF182101 </text>
<text text-anchor="middle" x="214.104" y="-7.8" font-family="Times New Roman,serif" font-size="14.00">Algoritma Struktur Data</text>
</g>
<!-- AIF181100&#45;&gt;AIF182101 -->
<g id="edge4" class="edge"><title>AIF181100&#45;&gt;AIF182101</title>
<path fill="none" stroke="black" d="M214.104,-50.7542C214.104,-49.9787 214.104,-49.1943 214.104,-48.4043"/>
<polygon fill="black" stroke="black" points="217.604,-48.0978 214.104,-38.0979 210.604,-48.0979 217.604,-48.0978"/>
</g>
<!-- AIF182105 -->
<g id="node19" class="node"><title>AIF182105</title>
<polygon fill="none" stroke="black" points="503.604,-38 306.604,-38 306.604,-0 503.604,-0 503.604,-38"/>
<text text-anchor="middle" x="405.104" y="-22.8" font-family="Times New Roman,serif" font-size="14.00">AIF182105 </text>
<text text-anchor="middle" x="405.104" y="-7.8" font-family="Times New Roman,serif" font-size="14.00">Pemograman Berorientasi Objek</text>
</g>
<!-- AIF181100&#45;&gt;AIF182105 -->
<g id="edge6" class="edge"><title>AIF181100&#45;&gt;AIF182105</title>
<path fill="none" stroke="black" d="M276.645,-52.9556C292.051,-49.0031 308.762,-44.716 324.877,-40.5817"/>
<polygon fill="black" stroke="black" points="326.001,-43.9069 334.818,-38.0316 324.262,-37.1264 326.001,-43.9069"/>
</g>
<!-- AIF181202 -->
<g id="node12" class="node"><title>AIF181202</title>
<polygon fill="none" stroke="black" points="908.104,-89 690.104,-89 690.104,-51 908.104,-51 908.104,-89"/>
<text text-anchor="middle" x="799.104" y="-73.8" font-family="Times New Roman,serif" font-size="14.00">AIF181202 </text>
<text text-anchor="middle" x="799.104" y="-58.8" font-family="Times New Roman,serif" font-size="14.00">Arsitektur dan Organisasi Komputer</text>
</g>
<!-- AIF181104 -->
<g id="node13" class="node"><title>AIF181104</title>
<polygon fill="none" stroke="black" points="1048.1,-89 926.104,-89 926.104,-51 1048.1,-51 1048.1,-89"/>
<text text-anchor="middle" x="987.104" y="-73.8" font-family="Times New Roman,serif" font-size="14.00">AIF181104 </text>
<text text-anchor="middle" x="987.104" y="-58.8" font-family="Times New Roman,serif" font-size="14.00">Logika Informatika</text>
</g>
<!-- AIF181106 -->
<g id="node14" class="node"><title>AIF181106</title>
<polygon fill="none" stroke="black" points="1230.1,-89 1066.1,-89 1066.1,-51 1230.1,-51 1230.1,-89"/>
<text text-anchor="middle" x="1148.1" y="-73.8" font-family="Times New Roman,serif" font-size="14.00">AIF181106 </text>
<text text-anchor="middle" x="1148.1" y="-58.8" font-family="Times New Roman,serif" font-size="14.00">Matriks dan Ruang Vektor</text>
</g>
<!-- MKU170240 -->
<g id="node15" class="node"><title>MKU170240</title>
<polygon fill="none" stroke="black" points="1340.1,-89 1248.1,-89 1248.1,-51 1340.1,-51 1340.1,-89"/>
<text text-anchor="middle" x="1294.1" y="-73.8" font-family="Times New Roman,serif" font-size="14.00">MKU170240 </text>
<text text-anchor="middle" x="1294.1" y="-58.8" font-family="Times New Roman,serif" font-size="14.00">Etika</text>
</g>
<!-- MKU170250 -->
<g id="node16" class="node"><title>MKU170250</title>
<polygon fill="none" stroke="black" points="1450.1,-89 1358.1,-89 1358.1,-51 1450.1,-51 1450.1,-89"/>
<text text-anchor="middle" x="1404.1" y="-73.8" font-family="Times New Roman,serif" font-size="14.00">MKU170250 </text>
<text text-anchor="middle" x="1404.1" y="-58.8" font-family="Times New Roman,serif" font-size="14.00">Pancasila</text>
</g>
</g>
</svg>
